<svg width="50" height="49" viewBox="0 0 50 49" fill="none" xmlns="http://www.w3.org/2000/svg">
<path d="M20.223 22.882L25.9035 32.058L10.768 41.2654C10.3604 41.513 9.91215 41.629 9.46698 41.629C8.62055 41.629 7.79605 41.1995 7.32268 40.4221L4.33193 35.4782C3.61089 34.2932 3.99022 32.7508 5.1721 32.0298L20.223 22.882ZM28.3488 0C27.7782 0 27.2077 0.150478 26.7217 0.448298C26.1449 0.796278 25.6778 1.33862 25.4239 2.02518L21.3547 13.0383C20.9754 14.0665 21.4989 15.2108 22.5272 15.5901C22.756 15.6748 22.988 15.7155 23.2169 15.7155C24.0226 15.7155 24.7812 15.2171 25.0759 14.4176L28.5306 5.07862L45.243 32.6317L29.8285 30.8479L22.5742 19.1389C22.2012 18.5338 21.5522 18.1984 20.8876 18.1984C20.8782 18.1984 20.8657 18.1984 20.8594 18.1984C20.85 18.1984 20.8406 18.1984 20.828 18.1984C20.4738 18.1984 20.1227 18.2893 19.7998 18.4868L3.11557 28.6378C0.058996 30.4968 -0.915973 34.4813 0.943053 37.5379L3.94006 42.4786C5.15956 44.4849 7.29133 45.5947 9.47952 45.5947C10.6238 45.5947 11.7837 45.2906 12.8339 44.6542L23.2388 38.3279L25.59 42.2027C26.1731 43.1683 25.869 44.4254 24.9035 45.0085C24.5712 45.2091 24.2075 45.3063 23.8439 45.3063C23.1573 45.3063 22.4802 44.9583 22.0946 44.3219L21.4707 43.2874C21.1917 42.8266 20.6995 42.5695 20.1979 42.5695C19.9346 42.5695 19.6712 42.6385 19.4267 42.7858C18.7214 43.2153 18.5019 44.1276 18.9251 44.8329L19.5521 45.8675C20.4957 47.4255 22.151 48.2814 23.8439 48.2814C24.7311 48.2814 25.6277 48.0463 26.4459 47.5541C28.8128 46.112 29.5683 43.0241 28.1293 40.6509L25.7813 36.7761L29.098 34.7572L46.5346 36.773C46.6632 36.7886 46.7854 36.7949 46.9108 36.7949C48.5755 36.7949 49.8107 35.4876 49.9799 34.033C50.0552 33.3778 49.9204 32.685 49.5473 32.0674L30.9947 1.49224C30.3771 0.476513 29.3582 0 28.3488 0Z" fill="white"/>
</svg>
